<?xml version="1.0" ?><svg style="enable-background:new 0 0 220.72 449.07;" version="1.1" viewBox="0 0 220.72 449.07" xml:space="preserve" xmlns="http://www.w3.org/2000/svg" xmlns:xlink="http://www.w3.org/1999/xlink"><g id="milk_shake"><path d="M97.474,213.026H12.939c0,0,21.086,134.129,57.4,185.086l-5.857,30.457h74.972   C139.454,428.57,90.446,384.055,97.474,213.026z" style="fill:#FDBB03;"/><path d="M162.728,408.11c78.248-126.662,55.024-288.046,53.974-294.999   c-0.786-5.21-4.377-9.379-9.096-11.099c4.422-11.682,5.647-23.677,3.574-35.864c-6.449-37.94-43.095-62.749-44.649-63.786   c-6.28-4.184-14.73-2.67-19.164,3.425c-9.386,12.901-27.201,14.606-47.834,16.576c-18.55,1.778-37.734,3.61-53.765,14.26   c-17.417,11.566-27.733,25.818-30.661,42.36c-1.459,8.24-0.829,15.835,0.655,22.366c-5.984,0.927-10.817,5.615-11.744,11.761   c-1.05,6.953-24.274,168.336,53.974,294.999L44.361,426.7c-3.133,4.269-3.597,9.939-1.205,14.668   c2.395,4.722,7.241,7.701,12.54,7.701h109.328c5.299,0,10.145-2.979,12.54-7.701c2.392-4.729,1.929-10.399-1.205-14.668   L162.728,408.11z M30.475,129.269h159.784c1.266,13.439,2.807,37.309,1.771,66.851H28.744   C27.699,166.587,29.221,142.715,30.475,129.269z M42.833,83.651c1.603-8.583,7.821-16.525,18.488-23.608   c10.165-6.751,25.091-8.178,40.888-9.692c19.559-1.87,41.252-3.947,57.715-17.273c8.638,7.897,20.78,21.546,23.54,37.782   c1.737,10.213-0.48,20.176-6.677,30.294H45.171C43.329,96.789,41.56,90.471,42.833,83.651z M83.437,420.955l2.924-3.988   c3.483-4.746,3.634-11.161,0.384-16.072c-37.182-56.17-51.518-122.359-56.287-176.662h159.863   c-4.76,54.259-19.109,120.409-56.345,176.662c-3.25,4.911-3.099,11.325,0.384,16.072l2.924,3.988H83.437z" style="fill:#352517;"/></g><g id="Layer_1"/></svg>